<?xml version="1.0" standalone="no"?>
<!DOCTYPE svg PUBLIC "-//W3C//DTD SVG 20010904//EN"
 "http://www.w3.org/TR/2001/REC-SVG-20010904/DTD/svg10.dtd">
<svg version="1.0" xmlns="http://www.w3.org/2000/svg"
 width="700.000000pt" height="700.000000pt" viewBox="0 0 700.000000 700.000000"
 preserveAspectRatio="xMidYMid meet">
<metadata>
Created by potrace 1.11, written by Peter Selinger 2001-2013
</metadata>
<g transform="translate(0.000000,700.000000) scale(0.100000,-0.100000)"
fill="#000000" stroke="none">
<path d="M1483 6626 c-63 -35 -77 -73 -82 -208 l-3 -118 -462 -1 c-253 0 -472
-2 -486 -5 -202 -34 -388 -207 -434 -404 -14 -57 -16 -357 -16 -2575 0 -2425
1 -2512 19 -2572 55 -180 210 -330 392 -378 46 -13 482 -15 3099 -14 l3045 0
67 23 c92 32 163 78 231 150 69 73 122 177 137 266 7 45 10 831 8 2580 -3
2400 -4 2517 -21 2560 -53 131 -147 241 -259 303 -113 64 -139 67 -655 67
l-463 0 0 108 c0 92 -3 114 -22 152 -60 119 -245 118 -305 0 -20 -38 -23 -60
-23 -152 l0 -108 -1750 0 -1750 0 0 108 c0 94 -3 115 -23 153 -43 83 -158 113
-244 65z m-82 -953 c0 -153 2 -286 4 -296 13 -66 94 -127 170 -127 63 0 125
37 153 90 21 43 22 54 22 327 l0 283 1750 0 1750 0 0 -280 c0 -298 4 -330 51
-373 82 -76 226 -54 276 42 22 43 23 52 23 328 l0 283 448 0 c279 0 461 -4
485 -11 20 -5 48 -21 62 -35 55 -55 54 -45 55 -543 l0 -461 -3150 0 -3150 0 0
446 c0 296 4 460 11 490 12 45 61 96 104 107 11 2 226 5 478 6 l457 1 1 -277z
m5249 -2984 c0 -1827 -1 -1861 -20 -1899 -11 -21 -36 -49 -57 -61 l-38 -24
-3035 0 c-3028 0 -3035 0 -3070 20 -21 12 -44 39 -57 65 l-23 44 0 1858 0
1858 3150 0 3150 0 0 -1861z"/>
<path d="M2190 3828 c-95 -48 -120 -191 -47 -275 43 -48 85 -55 328 -51 213 3
226 4 252 25 54 42 70 72 73 133 4 79 -25 136 -85 167 -42 22 -54 23 -260 23
-205 0 -219 -1 -261 -22z"/>
<path d="M3227 3821 c-75 -49 -98 -147 -54 -232 42 -79 59 -84 317 -87 218 -3
226 -2 270 20 121 62 117 255 -6 310 -39 17 -67 19 -263 18 l-219 -1 -45 -28z"/>
<path d="M4318 3840 c-78 -23 -123 -95 -114 -182 6 -66 33 -109 86 -135 42
-22 56 -23 261 -23 206 0 218 1 260 23 61 32 92 92 85 165 -6 69 -31 110 -85
139 -42 22 -53 23 -255 22 -116 0 -223 -4 -238 -9z"/>
<path d="M5343 3829 c-120 -59 -122 -246 -3 -306 42 -22 56 -23 257 -23 233 0
267 6 311 57 72 84 45 230 -51 273 -37 17 -67 20 -257 20 -198 0 -218 -2 -257
-21z"/>
<path d="M1140 3127 c-115 -60 -118 -240 -5 -304 37 -20 52 -22 259 -23 211 0
223 1 266 22 113 58 121 230 13 299 l-45 28 -222 1 c-214 1 -223 0 -266 -23z"/>
<path d="M2220 3143 c-143 -51 -162 -254 -30 -320 42 -22 56 -23 260 -23 204
0 218 1 260 23 118 59 118 245 0 305 -42 21 -55 22 -260 21 -118 0 -222 -3
-230 -6z"/>
<path d="M3254 3136 c-111 -48 -139 -206 -52 -288 47 -44 89 -50 322 -46 242
3 261 9 303 87 47 89 16 197 -67 239 -42 21 -56 22 -260 22 -156 -1 -223 -4
-246 -14z"/>
<path d="M4289 3127 c-112 -58 -117 -238 -9 -302 32 -18 55 -20 260 -23 218
-3 226 -2 270 20 118 60 118 244 1 305 -42 22 -54 23 -261 23 -207 0 -219 -1
-261 -23z"/>
<path d="M5340 3128 c-115 -59 -119 -241 -5 -305 37 -20 52 -22 259 -23 211 0
223 1 266 22 97 49 120 196 43 276 -44 46 -68 50 -299 52 -209 0 -221 0 -264
-22z"/>
<path d="M1140 2428 c-115 -59 -119 -242 -6 -305 38 -20 53 -22 260 -23 211 0
223 1 266 22 78 39 111 139 75 225 -18 42 -39 64 -82 86 -23 13 -72 16 -249
17 -209 0 -221 0 -264 -22z"/>
<path d="M2190 2428 c-109 -56 -119 -222 -18 -299 33 -24 34 -24 273 -24 277
0 292 4 332 85 45 91 16 194 -66 237 -42 22 -54 23 -260 23 -205 0 -219 -1
-261 -22z"/>
<path d="M3242 2429 c-57 -29 -81 -65 -88 -136 -5 -48 -2 -65 18 -103 41 -80
59 -85 318 -88 221 -3 226 -3 270 21 77 40 111 138 76 221 -40 96 -73 106
-338 106 -197 0 -216 -2 -256 -21z"/>
<path d="M4318 2440 c-116 -35 -157 -192 -75 -286 41 -47 81 -54 310 -54 201
0 215 1 257 23 119 59 118 244 0 305 -42 21 -55 22 -255 21 -115 0 -222 -4
-237 -9z"/>
<path d="M5353 2435 c-45 -19 -70 -44 -88 -88 -28 -66 -12 -155 36 -200 45
-42 79 -47 302 -47 204 0 216 1 258 23 60 31 92 92 86 163 -7 76 -32 115 -94
147 -41 22 -452 24 -500 2z"/>
<path d="M1151 1734 c-70 -30 -107 -101 -97 -185 7 -56 35 -100 81 -126 37
-20 52 -22 259 -23 211 0 223 1 266 22 58 30 88 81 88 152 -1 80 -34 133 -103
162 -50 20 -445 20 -494 -2z"/>
<path d="M2190 1728 c-118 -61 -119 -246 0 -305 42 -22 56 -23 261 -23 207 0
218 1 260 23 54 29 79 70 85 139 7 73 -24 133 -85 165 -42 22 -54 23 -260 23
-205 0 -219 -1 -261 -22z"/>
<path d="M3250 1734 c-91 -40 -126 -149 -77 -244 40 -79 58 -85 315 -88 213
-3 225 -2 268 19 128 61 123 259 -7 313 -52 22 -450 22 -499 0z"/>
<path d="M4301 1734 c-122 -53 -135 -242 -21 -309 33 -19 52 -20 270 -20 261
0 282 4 320 68 58 95 24 222 -72 262 -53 21 -446 21 -497 -1z"/>
<path d="M5353 1735 c-94 -41 -129 -149 -80 -245 40 -79 58 -85 311 -88 254
-4 289 3 331 67 65 97 32 224 -68 266 -51 21 -446 21 -494 0z"/>
</g>
</svg>
