<?xml version="1.0" standalone="no"?>
<!DOCTYPE svg PUBLIC "-//W3C//DTD SVG 20010904//EN"
 "http://www.w3.org/TR/2001/REC-SVG-20010904/DTD/svg10.dtd">
<svg version="1.0" xmlns="http://www.w3.org/2000/svg"
 width="700.000000pt" height="700.000000pt" viewBox="0 0 700.000000 700.000000"
 preserveAspectRatio="xMidYMid meet">
<metadata>
Created by potrace 1.11, written by Peter Selinger 2001-2013
</metadata>
<g transform="translate(0.000000,700.000000) scale(0.100000,-0.100000)"
fill="#000000" stroke="none">
<path d="M1750 6650 l0 -350 -372 -1 c-205 0 -393 -3 -417 -5 -145 -14 -310
-100 -419 -217 -79 -83 -130 -173 -168 -292 -18 -58 -19 -128 -19 -2620 0
-1408 4 -2580 8 -2604 27 -146 129 -310 257 -413 55 -44 164 -99 245 -124 58
-18 155 -19 2630 -19 2464 0 2573 1 2635 18 258 73 457 286 507 543 11 53 10
5117 0 5173 -45 240 -240 454 -482 529 -96 30 -121 31 -547 32 l-358 0 0 350
0 350 -350 0 -350 0 0 -350 0 -350 -1050 0 -1050 0 0 350 0 350 -350 0 -350 0
0 -350z m4200 -3850 l0 -2100 -2450 0 -2450 0 0 2100 0 2100 2450 0 2450 0 0
-2100z"/>
<path d="M1750 3500 l0 -350 350 0 350 0 0 350 0 350 -350 0 -350 0 0 -350z"/>
<path d="M3150 3500 l0 -350 350 0 350 0 0 350 0 350 -350 0 -350 0 0 -350z"/>
<path d="M4550 3500 l0 -350 350 0 350 0 0 350 0 350 -350 0 -350 0 0 -350z"/>
<path d="M1750 2100 l0 -350 350 0 350 0 0 350 0 350 -350 0 -350 0 0 -350z"/>
<path d="M3150 2100 l0 -350 350 0 350 0 0 350 0 350 -350 0 -350 0 0 -350z"/>
<path d="M4550 2100 l0 -350 350 0 350 0 0 350 0 350 -350 0 -350 0 0 -350z"/>
</g>
</svg>
