<svg style="position: absolute; width: 0; height: 0; overflow: hidden;" version="1.1" xmlns="http://www.w3.org/2000/svg" xmlns:xlink="http://www.w3.org/1999/xlink">
<defs>
<symbol id="icon-google-plus" viewBox="0 0 24 28">
<title>Google+</title>
<path d="M14.328 14.141c0-0.391-0.047-0.703-0.094-1h-5.656v2.063h3.391c-0.125 0.875-1.016 2.578-3.391 2.578-2.063 0-3.734-1.687-3.734-3.781s1.672-3.781 3.734-3.781c1.156 0 1.937 0.484 2.391 0.922l1.625-1.578c-1.047-0.969-2.406-1.563-4.016-1.563-3.328 0-6 2.688-6 6s2.672 6 6 6c3.453 0 5.75-2.438 5.75-5.859zM19.719 14.859h1.703v-1.719h-1.703v-1.719h-1.719v1.719h-1.719v1.719h1.719v1.719h1.719v-1.719zM24 6.5v15c0 2.484-2.016 4.5-4.5 4.5h-15c-2.484 0-4.5-2.016-4.5-4.5v-15c0-2.484 2.016-4.5 4.5-4.5h15c2.484 0 4.5 2.016 4.5 4.5z"></path>
</symbol>
<symbol id="icon-twitter" viewBox="0 0 24 28">
<title>Twitter</title>
<path d="M20 9.531c-0.594 0.266-1.219 0.438-1.891 0.531 0.688-0.406 1.203-1.062 1.453-1.828-0.641 0.375-1.344 0.656-2.094 0.797-0.594-0.641-1.453-1.031-2.391-1.031-1.813 0-3.281 1.469-3.281 3.281 0 0.25 0.016 0.516 0.078 0.75-2.734-0.141-5.156-1.437-6.781-3.437-0.281 0.484-0.453 1.062-0.453 1.656 0 1.141 0.531 2.141 1.422 2.734-0.547-0.016-1.062-0.172-1.563-0.406v0.031c0 1.594 1.203 2.922 2.703 3.219-0.281 0.078-0.5 0.125-0.797 0.125-0.203 0-0.406-0.031-0.609-0.063 0.422 1.297 1.625 2.25 3.063 2.281-1.125 0.875-2.531 1.406-4.078 1.406-0.266 0-0.531-0.016-0.781-0.047 1.453 0.922 3.172 1.469 5.031 1.469 6.031 0 9.344-5 9.344-9.344 0-0.141 0-0.281-0.016-0.422 0.641-0.453 1.203-1.031 1.641-1.703zM24 6.5v15c0 2.484-2.016 4.5-4.5 4.5h-15c-2.484 0-4.5-2.016-4.5-4.5v-15c0-2.484 2.016-4.5 4.5-4.5h15c2.484 0 4.5 2.016 4.5 4.5z"></path>
</symbol>
<symbol id="icon-facebook" viewBox="0 0 24 28">
<title>Facebook</title>
<path d="M19.5 2c2.484 0 4.5 2.016 4.5 4.5v15c0 2.484-2.016 4.5-4.5 4.5h-2.938v-9.297h3.109l0.469-3.625h-3.578v-2.312c0-1.047 0.281-1.75 1.797-1.75l1.906-0.016v-3.234c-0.328-0.047-1.469-0.141-2.781-0.141-2.766 0-4.672 1.687-4.672 4.781v2.672h-3.125v3.625h3.125v9.297h-8.313c-2.484 0-4.5-2.016-4.5-4.5v-15c0-2.484 2.016-4.5 4.5-4.5h15z"></path>
</symbol>
<symbol id="icon-funnel" viewBox="0 0 20 20">
<title>Funnel</title>
<path d="M16.23 3.307c-0.396-0.268-0.949-0.504-1.643-0.702-1.366-0.39-3.172-0.605-5.087-0.605s-3.722 0.215-5.087 0.605c-0.694 0.198-1.246 0.434-1.643 0.702-0.637 0.43-0.77 0.886-0.77 1.193v0.5c0 0.428 0.321 1.133 0.639 1.609l4.891 7.336c0.251 0.376 0.471 1.103 0.471 1.555v3c0 0.173 0.090 0.334 0.237 0.425 0.080 0.050 0.171 0.075 0.263 0.075 0.076 0 0.153-0.018 0.224-0.053l2-1c0.169-0.085 0.276-0.258 0.276-0.447v-2c0-0.452 0.22-1.179 0.471-1.555l4.891-7.336c0.317-0.476 0.639-1.182 0.639-1.609v-0.5c0-0.307-0.134-0.763-0.77-1.193zM4.688 3.567c1.279-0.365 2.988-0.567 4.812-0.567s3.534 0.201 4.812 0.567c1.378 0.394 1.688 0.816 1.688 0.933s-0.31 0.54-1.688 0.933c-1.279 0.365-2.988 0.567-4.812 0.567s-3.534-0.201-4.812-0.567c-1.378-0.394-1.688-0.816-1.688-0.933s0.31-0.54 1.688-0.933zM10.639 13.391c-0.358 0.537-0.639 1.464-0.639 2.109v1.691l-1 0.5v-2.191c0-0.646-0.281-1.572-0.639-2.109l-4.88-7.32c0.274 0.117 0.585 0.226 0.932 0.324 1.366 0.39 3.172 0.605 5.087 0.605s3.722-0.215 5.087-0.605c0.346-0.099 0.658-0.207 0.932-0.325l-4.88 7.32z"></path>
</symbol>
<symbol id="icon-plus" viewBox="0 0 20 20">
<title>Plus</title>
<path d="M16.218 3.782c-1.794-1.794-4.18-2.782-6.718-2.782s-4.923 0.988-6.718 2.782-2.782 4.18-2.782 6.717 0.988 4.923 2.782 6.718 4.18 2.782 6.718 2.782 4.923-0.988 6.718-2.782 2.782-4.18 2.782-6.718-0.988-4.923-2.782-6.717zM9.5 19c-4.687 0-8.5-3.813-8.5-8.5s3.813-8.5 8.5-8.5c4.687 0 8.5 3.813 8.5 8.5s-3.813 8.5-8.5 8.5z"></path>
<path d="M15.5 10h-5.5v-5.5c0-0.276-0.224-0.5-0.5-0.5s-0.5 0.224-0.5 0.5v5.5h-5.5c-0.276 0-0.5 0.224-0.5 0.5s0.224 0.5 0.5 0.5h5.5v5.5c0 0.276 0.224 0.5 0.5 0.5s0.5-0.224 0.5-0.5v-5.5h5.5c0.276 0 0.5-0.224 0.5-0.5s-0.224-0.5-0.5-0.5z"></path>
</symbol>
<symbol id="icon-calendar" viewBox="0 0 20 20">
<title>Calendar</title>
<path d="M18.5 2h-2.5v-0.5c0-0.276-0.224-0.5-0.5-0.5s-0.5 0.224-0.5 0.5v0.5h-10v-0.5c0-0.276-0.224-0.5-0.5-0.5s-0.5 0.224-0.5 0.5v0.5h-2.5c-0.827 0-1.5 0.673-1.5 1.5v14c0 0.827 0.673 1.5 1.5 1.5h17c0.827 0 1.5-0.673 1.5-1.5v-14c0-0.827-0.673-1.5-1.5-1.5zM1.5 3h2.5v1.5c0 0.276 0.224 0.5 0.5 0.5s0.5-0.224 0.5-0.5v-1.5h10v1.5c0 0.276 0.224 0.5 0.5 0.5s0.5-0.224 0.5-0.5v-1.5h2.5c0.276 0 0.5 0.224 0.5 0.5v2.5h-18v-2.5c0-0.276 0.224-0.5 0.5-0.5zM18.5 18h-17c-0.276 0-0.5-0.224-0.5-0.5v-10.5h18v10.5c0 0.276-0.224 0.5-0.5 0.5z"></path>
<path d="M7.5 10h-1c-0.276 0-0.5-0.224-0.5-0.5s0.224-0.5 0.5-0.5h1c0.276 0 0.5 0.224 0.5 0.5s-0.224 0.5-0.5 0.5z"></path>
<path d="M10.5 10h-1c-0.276 0-0.5-0.224-0.5-0.5s0.224-0.5 0.5-0.5h1c0.276 0 0.5 0.224 0.5 0.5s-0.224 0.5-0.5 0.5z"></path>
<path d="M13.5 10h-1c-0.276 0-0.5-0.224-0.5-0.5s0.224-0.5 0.5-0.5h1c0.276 0 0.5 0.224 0.5 0.5s-0.224 0.5-0.5 0.5z"></path>
<path d="M16.5 10h-1c-0.276 0-0.5-0.224-0.5-0.5s0.224-0.5 0.5-0.5h1c0.276 0 0.5 0.224 0.5 0.5s-0.224 0.5-0.5 0.5z"></path>
<path d="M4.5 12h-1c-0.276 0-0.5-0.224-0.5-0.5s0.224-0.5 0.5-0.5h1c0.276 0 0.5 0.224 0.5 0.5s-0.224 0.5-0.5 0.5z"></path>
<path d="M7.5 12h-1c-0.276 0-0.5-0.224-0.5-0.5s0.224-0.5 0.5-0.5h1c0.276 0 0.5 0.224 0.5 0.5s-0.224 0.5-0.5 0.5z"></path>
<path d="M10.5 12h-1c-0.276 0-0.5-0.224-0.5-0.5s0.224-0.5 0.5-0.5h1c0.276 0 0.5 0.224 0.5 0.5s-0.224 0.5-0.5 0.5z"></path>
<path d="M13.5 12h-1c-0.276 0-0.5-0.224-0.5-0.5s0.224-0.5 0.5-0.5h1c0.276 0 0.5 0.224 0.5 0.5s-0.224 0.5-0.5 0.5z"></path>
<path d="M16.5 12h-1c-0.276 0-0.5-0.224-0.5-0.5s0.224-0.5 0.5-0.5h1c0.276 0 0.5 0.224 0.5 0.5s-0.224 0.5-0.5 0.5z"></path>
<path d="M4.5 14h-1c-0.276 0-0.5-0.224-0.5-0.5s0.224-0.5 0.5-0.5h1c0.276 0 0.5 0.224 0.5 0.5s-0.224 0.5-0.5 0.5z"></path>
<path d="M7.5 14h-1c-0.276 0-0.5-0.224-0.5-0.5s0.224-0.5 0.5-0.5h1c0.276 0 0.5 0.224 0.5 0.5s-0.224 0.5-0.5 0.5z"></path>
<path d="M10.5 14h-1c-0.276 0-0.5-0.224-0.5-0.5s0.224-0.5 0.5-0.5h1c0.276 0 0.5 0.224 0.5 0.5s-0.224 0.5-0.5 0.5z"></path>
<path d="M13.5 14h-1c-0.276 0-0.5-0.224-0.5-0.5s0.224-0.5 0.5-0.5h1c0.276 0 0.5 0.224 0.5 0.5s-0.224 0.5-0.5 0.5z"></path>
<path d="M16.5 14h-1c-0.276 0-0.5-0.224-0.5-0.5s0.224-0.5 0.5-0.5h1c0.276 0 0.5 0.224 0.5 0.5s-0.224 0.5-0.5 0.5z"></path>
<path d="M4.5 16h-1c-0.276 0-0.5-0.224-0.5-0.5s0.224-0.5 0.5-0.5h1c0.276 0 0.5 0.224 0.5 0.5s-0.224 0.5-0.5 0.5z"></path>
<path d="M7.5 16h-1c-0.276 0-0.5-0.224-0.5-0.5s0.224-0.5 0.5-0.5h1c0.276 0 0.5 0.224 0.5 0.5s-0.224 0.5-0.5 0.5z"></path>
<path d="M10.5 16h-1c-0.276 0-0.5-0.224-0.5-0.5s0.224-0.5 0.5-0.5h1c0.276 0 0.5 0.224 0.5 0.5s-0.224 0.5-0.5 0.5z"></path>
<path d="M13.5 16h-1c-0.276 0-0.5-0.224-0.5-0.5s0.224-0.5 0.5-0.5h1c0.276 0 0.5 0.224 0.5 0.5s-0.224 0.5-0.5 0.5z"></path>
<path d="M16.5 16h-1c-0.276 0-0.5-0.224-0.5-0.5s0.224-0.5 0.5-0.5h1c0.276 0 0.5 0.224 0.5 0.5s-0.224 0.5-0.5 0.5z"></path>
</symbol>
<symbol id="icon-pin" viewBox="0 0 1024 1024">
<title>Map Pin</title>
<path d="M512 1024c-7.856 0-15.277-3.606-20.13-9.784-2.931-3.73-72.587-92.864-143.229-224.51-41.581-77.491-74.742-153.568-98.565-226.118-30.043-91.499-45.277-177.758-45.277-256.387 0-169.39 137.81-307.2 307.2-307.2s307.2 137.81 307.2 307.2c0 78.629-15.234 164.888-45.278 256.386-23.822 72.55-56.984 148.629-98.565 226.118-70.64 131.646-140.298 220.781-143.229 224.51-4.851 6.179-12.272 9.786-20.128 9.786zM512 51.2c-141.158 0-256 114.842-256 256 0 166.597 74.914 341.176 137.758 458.296 46.186 86.074 92.634 154.306 118.237 189.938 25.709-35.789 72.429-104.432 118.688-190.76 62.643-116.902 137.317-291.163 137.317-457.474 0-141.158-114.84-256-256-256z"></path>
<path d="M512 460.8c-84.696 0-153.6-68.904-153.6-153.6s68.904-153.6 153.6-153.6 153.6 68.904 153.6 153.6-68.904 153.6-153.6 153.6zM512 204.8c-56.464 0-102.4 45.936-102.4 102.4s45.936 102.4 102.4 102.4c56.464 0 102.4-45.936 102.4-102.4s-45.936-102.4-102.4-102.4z"></path>
</symbol>
<symbol id="icon-cog" viewBox="0 0 1024 1024">
<title>Cog</title>
<path d="M390.71 1008.755c-2.109 0-4.248-0.262-6.378-0.81-45.976-11.803-90.149-30.042-131.291-54.21-11.923-7.003-16.13-22.21-9.501-34.344 8.15-14.925 12.459-31.866 12.459-48.992 0-56.464-45.936-102.4-102.4-102.4-17.125 0-34.066 4.309-48.992 12.459-12.133 6.627-27.339 2.421-34.342-9.501-24.17-41.142-42.408-85.315-54.211-131.293-3.333-12.989 3.92-26.349 16.629-30.629 41.699-14.037 69.717-53.034 69.717-97.037s-28.018-83-69.718-97.040c-12.707-4.278-19.962-17.638-16.627-30.627 11.803-45.976 30.042-90.149 54.211-131.291 7.003-11.923 22.21-16.13 34.344-9.501 14.923 8.15 31.864 12.459 48.99 12.459 56.464 0 102.4-45.936 102.4-102.4 0-17.126-4.309-34.067-12.459-48.99-6.629-12.134-2.422-27.341 9.501-34.344 41.141-24.168 85.314-42.408 131.291-54.211 12.994-3.334 26.349 3.92 30.627 16.627 14.040 41.701 53.037 69.718 97.040 69.718s83-28.018 97.038-69.717c4.28-12.71 17.645-19.965 30.629-16.629 45.976 11.802 90.15 30.042 131.293 54.211 11.922 7.003 16.128 22.208 9.501 34.342-8.152 14.926-12.461 31.867-12.461 48.992 0 56.464 45.936 102.4 102.4 102.4 17.126 0 34.067-4.309 48.992-12.459 12.138-6.629 27.341-2.421 34.344 9.501 24.166 41.141 42.406 85.314 54.21 131.291 3.334 12.989-3.918 26.349-16.627 30.627-41.701 14.040-69.718 53.037-69.718 97.040s28.018 83 69.718 97.038c12.707 4.28 19.962 17.638 16.627 30.629-11.803 45.976-30.042 90.15-54.21 131.291-7.005 11.925-22.208 16.128-34.344 9.502-14.926-8.152-31.867-12.461-48.992-12.461-56.464 0-102.4 45.936-102.4 102.4 0 17.125 4.309 34.066 12.461 48.992 6.627 12.136 2.421 27.341-9.502 34.344-41.141 24.166-85.314 42.406-131.291 54.21-12.992 3.336-26.349-3.918-30.629-16.627-14.038-41.701-53.035-69.718-97.038-69.718s-83 28.018-97.040 69.718c-3.578 10.624-13.502 17.437-24.25 17.437zM512 870.4c57.715 0 109.693 32.138 135.917 82.029 26.637-8.218 52.507-18.875 77.299-31.846-5.541-16.077-8.416-33.075-8.416-50.182 0-84.696 68.904-153.6 153.6-153.6 17.107 0 34.106 2.875 50.181 8.418 12.971-24.792 23.63-50.662 31.846-77.299-49.89-26.226-82.027-78.203-82.027-135.918s32.138-109.691 82.029-135.918c-8.218-26.637-18.875-52.506-31.846-77.299-16.077 5.542-33.074 8.418-50.182 8.418-84.696 0-153.6-68.904-153.6-153.6 0-17.107 2.875-34.106 8.418-50.181-24.792-12.971-50.662-23.63-77.299-31.846-26.226 49.89-78.203 82.027-135.918 82.027s-109.691-32.138-135.917-82.027c-26.637 8.216-52.507 18.874-77.299 31.846 5.542 16.075 8.416 33.072 8.416 50.181 0 84.696-68.904 153.6-153.6 153.6-17.109 0-34.106-2.874-50.181-8.418-12.973 24.794-23.63 50.662-31.846 77.299 49.89 26.227 82.027 78.203 82.027 135.918s-32.138 109.693-82.027 135.917c8.216 26.637 18.875 52.507 31.846 77.299 16.075-5.541 33.074-8.416 50.181-8.416 84.696 0 153.6 68.904 153.6 153.6 0 17.109-2.875 34.106-8.418 50.181 24.794 12.971 50.662 23.63 77.299 31.846 26.227-49.89 78.203-82.027 135.918-82.027z"></path><path class="path2" d="M512 665.6c-84.696 0-153.6-68.904-153.6-153.6s68.904-153.6 153.6-153.6 153.6 68.904 153.6 153.6-68.904 153.6-153.6 153.6zM512 409.6c-56.464 0-102.4 45.936-102.4 102.4s45.936 102.4 102.4 102.4c56.464 0 102.4-45.936 102.4-102.4s-45.936-102.4-102.4-102.4z"></path>
</symbol>
<symbol id="icon-user" viewBox="0 0 1024 1024">
<title>User</title>
<path d="M486.4 563.2c-155.275 0-281.6-126.325-281.6-281.6s126.325-281.6 281.6-281.6 281.6 126.325 281.6 281.6-126.325 281.6-281.6 281.6zM486.4 51.2c-127.043 0-230.4 103.357-230.4 230.4s103.357 230.4 230.4 230.4c127.042 0 230.4-103.357 230.4-230.4s-103.358-230.4-230.4-230.4z"></path>
<path class="path2" d="M896 1024h-819.2c-42.347 0-76.8-34.451-76.8-76.8 0-3.485 0.712-86.285 62.72-168.96 36.094-48.126 85.514-86.36 146.883-113.634 74.957-33.314 168.085-50.206 276.797-50.206 108.71 0 201.838 16.893 276.797 50.206 61.37 27.275 110.789 65.507 146.883 113.634 62.008 82.675 62.72 165.475 62.72 168.96 0 42.349-34.451 76.8-76.8 76.8zM486.4 665.6c-178.52 0-310.267 48.789-381 141.093-53.011 69.174-54.195 139.904-54.2 140.61 0 14.013 11.485 25.498 25.6 25.498h819.2c14.115 0 25.6-11.485 25.6-25.6-0.006-0.603-1.189-71.333-54.198-140.507-70.734-92.304-202.483-141.093-381.002-141.093z"></path>
</symbol>
<symbol id="icon-power" viewBox="0 0 1024 1024">
<title>Power</title>
<path class="path1" d="M486.4 614.4c-14.138 0-25.6-11.461-25.6-25.6v-460.8c0-14.138 11.462-25.6 25.6-25.6s25.6 11.462 25.6 25.6v460.8c0 14.139-11.462 25.6-25.6 25.6z"></path>
<path class="path2" d="M486.4 972.8c-102.57 0-199-39.944-271.53-112.47-72.528-72.528-112.47-168.96-112.47-271.53 0-84.395 26.859-164.478 77.674-231.594 49.15-64.915 118.979-113.394 196.624-136.501 13.55-4.034 27.805 3.683 31.838 17.234s-3.683 27.805-17.234 31.838c-139.955 41.654-237.702 172.84-237.702 319.022 0 183.506 149.294 332.8 332.8 332.8s332.8-149.294 332.8-332.8c0-146.187-97.75-277.374-237.71-319.024-13.552-4.034-21.267-18.288-17.234-31.838 4.032-13.552 18.29-21.267 31.837-17.235 77.646 23.106 147.48 71.582 196.632 136.499 50.816 67.115 77.675 147.202 77.675 231.598 0 102.57-39.942 199.002-112.47 271.53-72.528 72.526-168.96 112.47-271.53 112.47z"></path>
</symbol>
<symbol id="icon-bell" viewBox="0 0 1024 1024">
<title>Bell</title>
<path class="path1" d="M860.171 773.15c-58.576-44-92.171-111.194-92.171-184.35v-153.6c0-128.661-86.733-237.442-204.798-270.954l-0.002-36.246c0-42.347-34.451-76.8-76.8-76.8-42.347 0-76.8 34.453-76.8 76.8v36.245c-118.067 33.512-204.8 142.294-204.8 270.955v153.6c0 73.157-33.595 140.349-92.171 184.35-8.808 6.616-12.395 18.125-8.907 28.573 3.486 10.448 13.267 17.496 24.283 17.496h232.982c-1.709 8.384-2.587 16.955-2.587 25.581 0 70.579 57.421 128 128 128s128-57.421 128-128c0-8.626-0.878-17.197-2.584-25.581h232.981c11.016 0 20.795-7.046 24.283-17.496s-0.101-21.957-8.909-28.573zM460.8 128c0-14.115 11.485-25.6 25.6-25.6s25.6 11.485 25.6 25.6v26.774c-8.435-0.763-16.97-1.176-25.6-1.176s-17.166 0.413-25.6 1.176v-26.774zM563.2 844.8c0 42.347-34.453 76.8-76.8 76.8s-76.8-34.453-76.8-76.8c0-8.76 1.515-17.411 4.394-25.581h144.813c2.878 8.168 4.394 16.821 4.394 25.581zM191.571 768.019c13.075-15.826 24.437-33.051 33.744-51.27 20.362-39.858 30.685-82.906 30.685-127.949v-153.6c0-127.043 103.357-230.4 230.4-230.4s230.4 103.357 230.4 230.4v153.6c0 45.043 10.323 88.091 30.685 127.949 9.307 18.219 20.669 35.445 33.744 51.27h-589.658z"></path>
</symbol>
<symbol id="icon-pencil" viewBox="0 0 1024 1024">
<title>Pencil</title>
<path class="path1" d="M978.101 45.898c-28.77-28.768-67.018-44.611-107.701-44.611-40.685 0-78.933 15.843-107.701 44.611l-652.8 652.8c-2.645 2.645-4.678 5.837-5.957 9.354l-102.4 281.6c-3.4 9.347-1.077 19.818 5.957 26.85 4.885 4.888 11.43 7.499 18.104 7.499 2.933 0 5.891-0.502 8.744-1.541l281.6-102.4c3.515-1.28 6.709-3.312 9.354-5.958l652.8-652.8c28.768-28.768 44.613-67.018 44.613-107.702s-15.843-78.933-44.613-107.701zM293.114 873.883l-224.709 81.71 81.712-224.707 566.683-566.683 142.997 142.997-566.683 566.683zM941.899 225.098l-45.899 45.899-142.997-142.997 45.899-45.899c19.098-19.098 44.49-29.614 71.498-29.614s52.4 10.518 71.499 29.616c19.098 19.098 29.616 44.49 29.616 71.498s-10.52 52.4-29.616 71.498z"></path>
</symbol>
<symbol id="icon-smartphone" viewBox="0 0 1024 1024">
<title>Smart Phone</title>
<path class="path1" d="M537.6 921.6h-51.2c-14.138 0-25.6-11.461-25.6-25.6s11.462-25.6 25.6-25.6h51.2c14.139 0 25.6 11.461 25.6 25.6s-11.461 25.6-25.6 25.6z"></path>
<path class="path2" d="M742.4 1024h-460.8c-42.347 0-76.8-34.451-76.8-76.8v-870.4c0-42.347 34.453-76.8 76.8-76.8h460.8c42.349 0 76.8 34.453 76.8 76.8v870.4c0 42.349-34.451 76.8-76.8 76.8zM281.6 51.2c-14.115 0-25.6 11.485-25.6 25.6v870.4c0 14.115 11.485 25.6 25.6 25.6h460.8c14.115 0 25.6-11.485 25.6-25.6v-870.4c0-14.115-11.485-25.6-25.6-25.6h-460.8z"></path>
<path class="path3" d="M691.2 819.2h-358.4c-14.138 0-25.6-11.461-25.6-25.6v-665.6c0-14.138 11.462-25.6 25.6-25.6h358.4c14.139 0 25.6 11.462 25.6 25.6v665.6c0 14.139-11.461 25.6-25.6 25.6zM358.4 768h307.2v-614.4h-307.2v614.4z"></path>
</symbol>
<symbol id="icon-earth" viewBox="0 0 1024 1024">
<title>earth</title>
<path class="path1" d="M874.038 149.962c-96.704-96.704-225.278-149.962-362.038-149.962s-265.334 53.258-362.038 149.962c-96.704 96.704-149.962 225.278-149.962 362.038s53.258 265.334 149.962 362.038c96.704 96.704 225.278 149.962 362.038 149.962s265.334-53.258 362.038-149.962c96.704-96.704 149.962-225.278 149.962-362.038s-53.258-265.334-149.962-362.038zM941.918 346.178c-9.989-17.987-35.050-26.512-67.853-37.661-35.182-11.957-47.608-48.122-61.994-89.997-12.49-36.35-25.398-73.874-56.069-97.238 83.898 52.584 149.733 131.406 185.915 224.896zM798.235 521.757c3.872 34.683 7.875 70.546-35.163 118.874-11.629 13.056-18.44 31.238-25.653 50.49-16.701 44.582-32.486 86.709-99.642 87.325-1.882-2.262-7.242-10.734-11.981-37.533-4.366-24.698-6.886-56.606-9.555-90.389-4.093-51.834-8.731-110.582-21.544-159.32-16.382-62.325-43.867-99.141-84.026-112.554-17.522-5.853-35.411-8.698-54.693-8.698-14.211 0-27.125 1.522-38.517 2.864-8.875 1.045-17.258 2.034-24.341 2.034 0 0-0.002 0-0.003 0-11.987 0-25.573 0-42.278-38.29-24.021-55.053-6.304-143.267 64.202-189.787 38.661-25.509 65.336-36.392 89.2-36.392 19.026 0 39.581 6.622 68.73 22.146 34.418 18.33 61.379 20.68 81.026 20.68 7.789 0 14.85-0.419 21.682-0.826 5.726-0.339 11.134-0.661 16.139-0.661 11.259 0 20.387 1.467 31.088 8.776 19.723 13.472 29.936 43.195 40.747 74.664 16.392 47.715 34.973 101.798 93.941 121.837 7.925 2.693 21.576 7.333 31.216 11.366-8.328 8.608-22.285 21.067-35.92 33.24-8.808 7.862-18.789 16.773-29.851 26.858-31.965 29.133-28.16 63.221-24.803 93.296zM51.25 508.070c5.52 0.992 11.493 2.141 17.605 3.446 28.776 6.141 42.235 11.686 48.117 14.798-2.706 5.277-8.187 13.056-11.81 18.195-12.669 17.976-28.435 40.349-22.437 64.984 4.046 16.618 0.632 37.032-5.248 55.883-16.994-48.005-26.277-99.624-26.277-153.378 0-1.314 0.038-2.618 0.050-3.93zM512 972.8c-175.379 0-328.173-98.494-406.014-243.062 13.422-25.554 38.314-82.054 26.68-131.547 0.806-4.97 9.248-16.95 14.349-24.186 13.874-19.688 31.141-44.189 18.35-70.152-8.976-18.222-32.957-30.534-80.181-41.17-10.939-2.464-21.594-4.47-30.65-6.019 27.424-228.090 222.107-405.464 457.466-405.464 80.776 0 156.749 20.918 222.83 57.582-16.33-7.134-31.154-8.266-43.014-8.266-6.523 0-12.957 0.382-19.176 0.752-6.085 0.362-12.374 0.734-18.645 0.734-14.542 0-32.682-1.742-56.958-14.67-37.056-19.734-64.808-28.155-92.795-28.155-34.635 0-69.744 13.414-117.397 44.856-41.197 27.181-72.229 68.779-87.381 117.133-14.779 47.166-13.2 95.418 4.448 135.867 20.824 47.728 48.336 69.013 89.203 69.014 0.003 0 0.003 0 0.006 0 10.090 0 19.923-1.158 30.333-2.386 10.482-1.235 21.32-2.512 32.525-2.512 13.869 0 26.094 1.926 38.472 6.061 22.488 7.512 39.082 32.701 50.728 77.008 11.648 44.31 16.098 100.638 20.021 150.334 3.274 41.454 6.366 80.61 13.176 110.126 4.136 17.923 9.494 31.538 16.379 41.621 10.283 15.058 25.032 23.35 41.526 23.35 45.269 0 81.429-14.594 107.47-43.374 21.659-23.934 32.722-53.466 41.613-77.194 5.245-14.003 10.67-28.482 15.941-34.402 58.219-65.373 52.203-119.258 47.813-158.603-3.226-28.888-3.285-39.123 8.408-49.781 10.864-9.904 20.741-18.722 29.454-26.499 18.568-16.576 31.984-28.554 41.397-38.83 6.464-7.058 21.603-23.584 17.395-44.28-0.037-0.184-0.088-0.358-0.126-0.539 17.558 48.701 27.154 101.174 27.154 155.851 0 254.086-206.714 460.8-460.8 460.8z"></path>
</symbol>
<symbol id="icon-tag" viewBox="0 0 1024 1024">
<title>Tag</title>
<path class="path1" d="M384 977.13c-20.554 0-39.84-7.966-54.306-22.43l-260.394-260.395c-14.466-14.464-22.432-33.75-22.432-54.304s7.966-39.84 22.434-54.306l439.594-439.592c24.91-24.914 70.269-43.702 105.504-43.702h230.4c42.349 0 76.8 34.453 76.8 76.8v230.4c0 35.232-18.787 80.59-43.699 105.504l-439.595 439.595c-14.466 14.466-33.752 22.43-54.306 22.43zM614.4 153.6c-21.246 0-54.278 13.682-69.299 28.704l-439.595 439.595c-4.795 4.795-7.435 11.224-7.435 18.101s2.64 13.306 7.435 18.099l260.394 260.397c4.795 4.794 11.224 7.434 18.101 7.434s13.307-2.64 18.102-7.435l439.594-439.592c15.021-15.024 28.704-48.058 28.704-69.302v-230.4c0-14.115-11.485-25.6-25.6-25.6h-230.4z"></path>
<path class="path2" d="M742.4 358.4c-42.349 0-76.8-34.453-76.8-76.8s34.451-76.8 76.8-76.8 76.8 34.453 76.8 76.8-34.451 76.8-76.8 76.8zM742.4 256c-14.115 0-25.6 11.485-25.6 25.6s11.485 25.6 25.6 25.6 25.6-11.485 25.6-25.6-11.485-25.6-25.6-25.6z"></path>
</symbol>
<symbol id="icon-list" viewBox="0 0 1024 1024">
<title>List</title>
<path class="path1" d="M998.4 819.2h-768c-14.138 0-25.6-11.461-25.6-25.6s11.462-25.6 25.6-25.6h768c14.139 0 25.6 11.461 25.6 25.6s-11.461 25.6-25.6 25.6z"></path>
<path class="path2" d="M998.4 563.2h-768c-14.138 0-25.6-11.461-25.6-25.6s11.462-25.6 25.6-25.6h768c14.139 0 25.6 11.461 25.6 25.6s-11.461 25.6-25.6 25.6z"></path>
<path class="path3" d="M998.4 307.2h-768c-14.138 0-25.6-11.462-25.6-25.6s11.462-25.6 25.6-25.6h768c14.139 0 25.6 11.462 25.6 25.6s-11.461 25.6-25.6 25.6z"></path>
<path class="path4" d="M76.8 358.4c-42.347 0-76.8-34.453-76.8-76.8s34.453-76.8 76.8-76.8 76.8 34.453 76.8 76.8-34.453 76.8-76.8 76.8zM76.8 256c-14.115 0-25.6 11.485-25.6 25.6s11.485 25.6 25.6 25.6 25.6-11.485 25.6-25.6-11.485-25.6-25.6-25.6z"></path>
<path class="path5" d="M76.8 614.4c-42.347 0-76.8-34.451-76.8-76.8 0-42.347 34.453-76.8 76.8-76.8s76.8 34.453 76.8 76.8c0 42.349-34.453 76.8-76.8 76.8zM76.8 512c-14.115 0-25.6 11.485-25.6 25.6s11.485 25.6 25.6 25.6 25.6-11.485 25.6-25.6-11.485-25.6-25.6-25.6z"></path>
<path class="path6" d="M76.8 870.4c-42.347 0-76.8-34.451-76.8-76.8s34.453-76.8 76.8-76.8 76.8 34.451 76.8 76.8-34.453 76.8-76.8 76.8zM76.8 768c-14.115 0-25.6 11.485-25.6 25.6s11.485 25.6 25.6 25.6 25.6-11.485 25.6-25.6-11.485-25.6-25.6-25.6z"></path>
</symbol>
<symbol id="icon-comment" viewBox="0 0 1024 1024">
<title>Comment</title>
<path class="path1" d="M25.6 972.8c-11.507 0-21.6-7.677-24.67-18.766s1.634-22.864 11.501-28.784c86.57-51.942 122.485-127.414 135.218-162.755-94.088-72.048-147.648-171.746-147.648-276.094 0-52.704 13.23-103.755 39.323-151.736 24.902-45.794 60.406-86.806 105.526-121.899 91.504-71.17 212.802-110.365 341.55-110.365s250.046 39.195 341.552 110.366c45.118 35.093 80.624 76.104 105.526 121.899 26.091 47.979 39.322 99.030 39.322 151.734 0 52.702-13.23 103.755-39.322 151.736-24.902 45.794-60.408 86.806-105.526 121.899-91.506 71.17-212.803 110.365-341.552 110.365-52.907 0-104.8-6.627-154.437-19.707-21.974 14.637-63.040 40.605-112.086 65.005-76.163 37.89-141.528 57.102-194.277 57.102zM486.4 153.6c-239.97 0-435.2 149.294-435.2 332.8 0 92.946 51.432 182.379 141.107 245.368 8.797 6.178 12.795 17.194 10.013 27.576-5.984 22.325-26.363 83.597-80.878 142.734 66.659-23.341 138.424-63.832 191.434-100.286 6.296-4.328 14.197-5.621 21.544-3.52 48.558 13.888 99.691 20.928 151.981 20.928 239.97 0 435.2-149.294 435.2-332.8s-195.23-332.8-435.2-332.8z"></path>
</symbol>
<symbol id="icon-clock" viewBox="0 0 1024 1024">
<title>clock</title>
<path class="path1" d="M835.574 876.171c88.534-91.234 137.226-211.154 137.226-338.571 0-121.352-44.152-235.912-124.834-325.36l35.234-35.237 33.101 33.099c4.997 4.998 11.547 7.498 18.099 7.498s13.102-2.499 18.099-7.499c10-9.997 10-26.206 0-36.203l-102.4-102.4c-9.995-9.998-26.208-9.998-36.205 0s-9.998 26.206 0 36.203l33.102 33.099-35.237 35.235c-89.45-80.683-204.008-124.835-325.36-124.835s-235.91 44.152-325.36 124.835l-35.237-35.235 33.098-33.098c9.998-9.997 9.998-26.206 0-36.203s-26.206-9.998-36.203 0l-102.4 102.4c-9.998 9.997-9.998 26.206 0 36.203 5 4.998 11.55 7.498 18.102 7.498s13.102-2.499 18.101-7.499l33.099-33.098 35.237 35.237c-80.685 89.45-124.837 204.008-124.837 325.36 0 127.418 48.691 247.336 137.226 338.57l-104.128 104.125c-9.998 9.997-9.998 26.21 0 36.205 5 5.002 11.55 7.501 18.102 7.501s13.102-2.499 18.101-7.501l105.448-105.446c87.304 73.114 196.41 112.947 311.651 112.947s224.349-39.834 311.651-112.946l105.443 105.445c5 5 11.554 7.501 18.102 7.501s13.102-2.499 18.099-7.501c10-9.995 10-26.208 0-36.205l-104.122-104.123zM51.2 537.6c0-239.97 195.23-435.2 435.2-435.2s435.2 195.23 435.2 435.2c0 239.97-195.23 435.2-435.2 435.2s-435.2-195.23-435.2-435.2z"></path>
<path class="path2" d="M774.611 371.2c-7.069-12.245-22.728-16.435-34.966-9.37l-251.917 145.445-196.344-137.482c-11.582-8.11-27.547-5.294-35.654 6.286-8.11 11.582-5.294 27.546 6.286 35.654l209.702 146.834c0.042 0.030 0.085 0.053 0.126 0.082 0.448 0.309 0.906 0.603 1.37 0.883 0.106 0.064 0.21 0.13 0.315 0.192 0.458 0.264 0.923 0.512 1.394 0.75 0.102 0.051 0.203 0.11 0.307 0.163 0.518 0.25 1.046 0.485 1.579 0.699 0.328 0.133 0.659 0.246 0.99 0.366 0.219 0.075 0.435 0.16 0.656 0.232 0.36 0.117 0.722 0.222 1.085 0.322 0.2 0.056 0.4 0.109 0.6 0.163 0.366 0.091 0.733 0.174 1.101 0.251 0.213 0.042 0.426 0.083 0.64 0.12 0.355 0.064 0.71 0.125 1.067 0.171 0.258 0.035 0.515 0.059 0.774 0.090 0.315 0.034 0.629 0.070 0.944 0.091 0.466 0.034 0.933 0.045 1.4 0.053 0.104 0 0.208 0.011 0.314 0.011 0.005 0 0.011-0.002 0.016-0.002 0.010 0 0.021 0.002 0.030 0.002 0.957 0 1.917-0.062 2.875-0.171 0.045-0.003 0.091-0.006 0.134-0.013 0.93-0.109 1.854-0.28 2.776-0.496 0.086-0.021 0.173-0.035 0.259-0.059 0.867-0.213 1.728-0.472 2.579-0.779 0.146-0.050 0.29-0.104 0.434-0.163 0.795-0.302 1.581-0.637 2.358-1.029 0.184-0.094 0.365-0.197 0.549-0.294 0.269-0.144 0.542-0.278 0.81-0.434l266.043-153.6c12.24-7.069 16.435-22.725 9.366-34.97z"></path>
</symbol>
<symbol id="icon-eye" viewBox="0 0 1024 1024">
<title>Eye</title>
<path class="path1" d="M1017.429 520.474c-2.429-2.698-60.515-66.826-151.349-131.706-53.587-38.277-107.499-68.826-160.234-90.8-66.837-27.848-132.056-41.968-193.846-41.968s-127.010 14.12-193.846 41.97c-52.736 21.973-106.646 52.523-160.234 90.8-90.832 64.878-148.92 129.006-151.349 131.704-8.763 9.736-8.763 24.515 0 34.251 2.429 2.699 60.517 66.827 151.349 131.707 53.587 38.277 107.498 68.827 160.234 90.8 66.837 27.848 132.056 41.968 193.846 41.968s127.010-14.12 193.846-41.968c52.734-21.973 106.645-52.523 160.234-90.8 90.834-64.88 148.92-129.008 151.349-131.706 8.762-9.736 8.762-24.517 0-34.253zM643.789 329.643c46.458 39.074 73.011 95.923 73.011 156.757 0 112.926-91.874 204.8-204.8 204.8-112.928 0-204.8-91.874-204.8-204.8 0-60.835 26.554-117.685 73.014-156.757 42.107-13.744 86.602-22.443 131.786-22.443 45.186 0 89.682 8.699 131.789 22.443zM835.418 645.413c-78.488 55.925-198.309 122.587-323.418 122.587s-244.93-66.662-323.416-122.587c-59.24-42.21-104.574-84.89-127.458-107.813 22.888-22.928 68.222-65.606 127.458-107.813 27.13-19.331 59.2-39.942 94.72-58.643-17.766 35.224-27.304 74.52-27.304 115.256 0 141.16 114.842 256 256 256 141.16 0 256-114.84 256-256 0-40.734-9.538-80.032-27.301-115.256 35.517 18.701 67.589 39.312 94.718 58.643 59.238 42.21 104.573 84.89 127.456 107.813-22.888 22.928-68.222 65.606-127.456 107.813z"></path>
</symbol>
<symbol id="icon-success" viewBox="0 0 1024 1024">
<title>Success</title>
<path class="path1" d="M486.4 1024c-129.922 0-252.067-50.594-343.936-142.464s-142.464-214.014-142.464-343.936c0-129.923 50.595-252.067 142.464-343.936s214.013-142.464 343.936-142.464c129.922 0 252.067 50.595 343.936 142.464s142.464 214.014 142.464 343.936-50.594 252.067-142.464 343.936c-91.869 91.87-214.014 142.464-343.936 142.464zM486.4 102.4c-239.97 0-435.2 195.23-435.2 435.2s195.23 435.2 435.2 435.2 435.2-195.23 435.2-435.2-195.23-435.2-435.2-435.2z"></path>
<path class="path2" d="M384 742.4c-6.552 0-13.102-2.499-18.102-7.499l-153.6-153.6c-9.997-9.997-9.997-26.206 0-36.203 9.998-9.997 26.206-9.997 36.205 0l135.498 135.498 340.299-340.298c9.997-9.997 26.206-9.997 36.203 0 9.998 9.998 9.998 26.206 0 36.205l-358.4 358.4c-5 4.998-11.55 7.498-18.102 7.498z"></path>
</symbol>
<symbol id="icon-alert" viewBox="0 0 1024 1024">
<title>Alert</title>
<path class="path1" d="M733.808 723.266l-208.874-185.666 208.874-185.667c10.566-9.394 11.518-25.574 2.126-36.141-9.394-10.566-25.574-11.522-36.142-2.126l-213.392 189.682-213.392-189.68c-10.568-9.392-26.749-8.44-36.141 2.126-9.394 10.566-8.442 26.749 2.126 36.141l208.874 185.666-208.875 185.666c-10.566 9.394-11.518 25.574-2.126 36.142 5.059 5.691 12.085 8.592 19.142 8.592 6.048 0 12.122-2.131 16.998-6.466l213.394-189.683 213.392 189.683c4.878 4.334 10.949 6.466 16.998 6.466 7.058 0 14.086-2.902 19.144-8.592 9.392-10.568 8.44-26.749-2.126-36.142z"></path><path class="path2" d="M486.4 1024c-129.922 0-252.067-50.594-343.936-142.464s-142.464-214.014-142.464-343.936c0-129.923 50.595-252.067 142.464-343.936s214.013-142.464 343.936-142.464c129.922 0 252.067 50.595 343.936 142.464s142.464 214.014 142.464 343.936-50.594 252.067-142.464 343.936c-91.869 91.87-214.014 142.464-343.936 142.464zM486.4 102.4c-239.97 0-435.2 195.23-435.2 435.2s195.23 435.2 435.2 435.2 435.2-195.23 435.2-435.2-195.23-435.2-435.2-435.2z"></path>
</symbol>
<symbol id="icon-warning" viewBox="0 0 1024 1024">
<title>Warning</title>
<path class="path1" d="M947.2 972.8h-921.6c-9.094 0-17.507-4.826-22.099-12.677s-4.672-17.547-0.214-25.474l460.8-819.2c4.536-8.061 13.066-13.050 22.314-13.050s17.778 4.989 22.312 13.050l460.8 819.2c4.459 7.926 4.376 17.624-0.214 25.474-4.592 7.851-13.002 12.677-22.098 12.677zM69.371 921.6h834.056l-417.027-741.382-417.029 741.382z"></path>
<path class="path2" d="M486.4 716.8c-14.138 0-25.6-11.461-25.6-25.6v-256c0-14.138 11.462-25.6 25.6-25.6s25.6 11.462 25.6 25.6v256c0 14.139-11.462 25.6-25.6 25.6z"></path>
<path class="path3" d="M486.4 870.4c-14.138 0-25.6-11.461-25.6-25.6v-51.2c0-14.139 11.462-25.6 25.6-25.6s25.6 11.461 25.6 25.6v51.2c0 14.139-11.462 25.6-25.6 25.6z"></path>
</symbol>
<symbol id="icon-bullhorn" viewBox="0 0 1024 1024">
<title>Bullhorn</title>
<path class="path1" d="M992.694 158.682c-29.611-88.835-68.928-107.482-96.694-107.482-0.584 0-1.176 0.011-1.771 0.029-28.322 0.598-78.627 15.33-153.997 37.41-157.898 46.258-396.514 116.162-637.832 116.162-58.378 0-102.4 77.038-102.4 179.2s44.022 179.2 102.4 179.2c18.891 0 37.765 0.429 56.584 1.24l85.306 339.347c9.73 38.699 48.608 69.013 88.51 69.013h67.2c22.17 0 40.986-9.23 51.622-25.322 10.635-16.091 11.75-37.019 3.061-57.416l-131.926-309.634c160.552 23.672 308.307 66.95 417.474 98.931 75.37 22.082 125.675 36.813 153.997 37.411 0.595 0.018 1.187 0.029 1.771 0.029 27.766 0 67.083-18.646 96.694-107.482 20.19-60.563 31.307-140.582 31.307-225.318 0-84.734-11.117-164.755-31.306-225.318zM819.2 384c0-26.266 1.122-51.965 3.285-76.616 26.291 2.642 47.915 36.642 47.915 76.616s-21.624 73.974-47.915 76.616c-2.163-24.651-3.285-50.35-3.285-76.616zM51.2 384c0-78.136 30.325-128 51.2-128 58.117 0 115.915-3.888 172.422-10.445-12.142 38.794-18.822 86.912-18.822 138.445 0 51.549 6.68 99.658 18.821 138.443-56.507-6.555-114.306-10.443-172.421-10.443-20.875 0-51.2-49.864-51.2-128zM407.579 910.131c2.099 4.928 1.93 8.208 1.328 9.117s-3.55 2.352-8.907 2.352h-67.2c-16.349 0-34.869-14.44-38.856-30.296l-81.33-323.53c17.157 1.379 34.235 3.046 51.213 4.966l143.752 337.39zM332.24 530.051c-15.587-35.173-25.040-89.509-25.040-146.051 0-57.422 9.238-110.73 25.011-146.046 163.054-24.2 312.094-67.861 422.414-100.179 21.243-6.224 41.526-12.165 59.938-17.344-5.285 11.019-10.402 23.686-15.256 38.253-20.19 60.562-31.307 140.582-31.307 225.317s11.117 164.755 31.306 225.318c4.854 14.566 9.971 27.234 15.256 38.253-18.411-5.181-38.694-11.122-59.938-17.346-110.314-32.317-259.341-75.974-422.384-100.174zM944.122 593.128c-19.107 57.325-39.832 72.472-48.122 72.472s-29.014-15.147-48.122-72.472c-8.024-24.069-14.48-51.678-19.222-81.701 24.888-2.87 48.298-16.95 65.33-39.658 17.808-23.744 27.614-54.914 27.614-87.77 0-32.854-9.806-64.026-27.614-87.768-17.034-22.709-40.442-36.789-65.33-39.659 4.742-30.024 11.198-57.632 19.222-81.699 19.109-57.326 39.832-72.474 48.122-72.474s29.013 15.147 48.122 72.472c18.494 55.482 28.678 129.75 28.678 209.128s-10.184 153.646-28.678 209.128z"></path>
</symbol>
<symbol id="icon-flag" viewBox="0 0 1024 1024">
<title>Flag</title>
<path class="path1" d="M76.8 972.8c-14.138 0-25.6-11.461-25.6-25.6v-768c0-14.138 11.462-25.6 25.6-25.6s25.6 11.462 25.6 25.6v768c0 14.139-11.462 25.6-25.6 25.6z"></path>
<path class="path2" d="M179.181 512.002c-5.346 0-10.734-1.667-15.341-5.122-11.31-8.483-13.603-24.53-5.12-35.838 3.45-4.6 85.789-112.64 199.68-112.64 86.715 0 144.038 30.666 194.614 57.722 44.813 23.973 83.515 44.677 138.186 44.677 112.246 0 192.389-106.49 238.093-190.344-35.736 20.317-81.411 36.744-135.693 36.744-113.005 0-171.389-58.386-222.901-109.899-50.925-50.922-94.902-94.901-186.699-94.901-113.883 0-183.629 91.238-184.32 92.16-8.483 11.31-24.53 13.603-35.84 5.12s-13.603-24.53-5.12-35.84c3.45-4.6 86.080-112.64 225.28-112.64 113.003 0 171.389 58.386 222.901 109.899 50.925 50.922 94.904 94.901 186.699 94.901 113.883 0 183.629-91.238 184.32-92.16 7.534-10.043 21.238-13.141 32.362-7.315 11.122 5.827 16.374 18.861 12.405 30.771-1.090 3.269-27.288 80.958-79.786 159.704-31.341 47.011-65.638 84.654-101.941 111.88-46.997 35.248-97.384 53.12-149.76 53.12-67.504 0-115.715-25.79-162.338-50.733-49.669-26.57-96.582-51.667-170.462-51.667-88.576 0-158.029 91.238-158.72 92.16-5.029 6.706-12.717 10.242-20.499 10.242z"></path>
</symbol>
</defs>
</svg>
